<svg id="instagram" width="38" height="39" viewBox="0 0 38 39" fill="white" xmlns="http://www.w3.org/2000/svg">
<g clip-path="url(#clip0_57_24)">
<path d="M25.2914 3.41641C27.2236 3.42218 29.0751 4.19231 30.4414 5.55861C31.8077 6.92491 32.5778 8.77636 32.5836 10.7086V25.2914C32.5778 27.2236 31.8077 29.0751 30.4414 30.4414C29.0751 31.8077 27.2236 32.5778 25.2914 32.5836H10.7086C8.77636 32.5778 6.92491 31.8077 5.55861 30.4414C4.19231 29.0751 3.42218 27.2236 3.41641 25.2914V10.7086C3.42218 8.77636 4.19231 6.92491 5.55861 5.55861C6.92491 4.19231 8.77636 3.42218 10.7086 3.41641H25.2914ZM25.2914 0.5H10.7086C5.09375 0.5 0.5 5.09375 0.5 10.7086V25.2914C0.5 30.9062 5.09375 35.5 10.7086 35.5H25.2914C30.9062 35.5 35.5 30.9062 35.5 25.2914V10.7086C35.5 5.09375 30.9062 0.5 25.2914 0.5Z" fill="white"/>
<path d="M27.4789 10.7086C27.0463 10.7086 26.6233 10.5803 26.2636 10.3399C25.9039 10.0996 25.6235 9.75792 25.4579 9.35821C25.2924 8.95849 25.249 8.51866 25.3334 8.09433C25.4178 7.67 25.6262 7.28022 25.9321 6.97429C26.238 6.66836 26.6278 6.46003 27.0521 6.37562C27.4765 6.29122 27.9163 6.33454 28.316 6.5001C28.7157 6.66567 29.0574 6.94605 29.2977 7.30578C29.5381 7.66551 29.6664 8.08844 29.6664 8.52109C29.667 8.80853 29.6109 9.09326 29.5012 9.35894C29.3914 9.62462 29.2303 9.86601 29.0271 10.0693C28.8238 10.2725 28.5824 10.4336 28.3168 10.5433C28.0511 10.653 27.7663 10.7092 27.4789 10.7086ZM18 12.1664C19.1538 12.1664 20.2816 12.5085 21.241 13.1495C22.2003 13.7905 22.948 14.7016 23.3895 15.7676C23.8311 16.8335 23.9466 18.0065 23.7215 19.1381C23.4964 20.2697 22.9408 21.3091 22.125 22.125C21.3091 22.9408 20.2697 23.4964 19.1381 23.7215C18.0065 23.9466 16.8335 23.8311 15.7676 23.3895C14.7016 22.948 13.7906 22.2003 13.1495 21.241C12.5085 20.2816 12.1664 19.1538 12.1664 18C12.1681 16.4533 12.7832 14.9705 13.8769 13.8768C14.9705 12.7832 16.4533 12.1681 18 12.1664ZM18 9.24999C16.2694 9.24999 14.5777 9.76317 13.1388 10.7246C11.6998 11.6861 10.5783 13.0527 9.91606 14.6515C9.25379 16.2504 9.08051 18.0097 9.41813 19.707C9.75575 21.4044 10.5891 22.9635 11.8128 24.1872C13.0365 25.4109 14.5956 26.2442 16.293 26.5819C17.9903 26.9195 19.7496 26.7462 21.3485 26.0839C22.9473 25.4217 24.3139 24.3002 25.2754 22.8612C26.2368 21.4223 26.75 19.7306 26.75 18C26.75 15.6793 25.8281 13.4538 24.1872 11.8128C22.5462 10.1719 20.3206 9.24999 18 9.24999Z" fill="white"/>
</g>
<defs>
<clipPath id="clip0_57_24">
<rect width="38" height="38" fill="white" transform="translate(0 0.5)"/>
</clipPath>
</defs>
</svg>
