<svg width="78" height="73" viewBox="0 0 78 73" fill="none" xmlns="http://www.w3.org/2000/svg">
<path d="M62.2188 72.6875C61.8021 72.6875 60.9167 72.5833 59.5625 72.375C58.2083 72.1667 56.5938 71.2292 54.7188 69.5625C52.9479 67.7917 51.4375 65.6042 50.1875 63C47.375 57.6875 45.9688 51.5938 45.9688 44.7188C45.9688 37.7396 47.1146 31.4896 49.4062 25.9688C51.8021 20.4479 54.5104 15.8125 57.5312 12.0625C60.6562 8.20833 63.6771 5.29167 66.5938 3.3125C69.6146 1.33333 71.6458 0.34375 72.6875 0.34375C73.7292 0.34375 74.6146 0.760417 75.3438 1.59375C76.0729 2.32292 76.4375 3.15625 76.4375 4.09375C76.4375 6.38542 75.5521 8.20833 73.7812 9.5625C72.0104 10.8125 70.5521 12.2188 69.4062 13.7812C68.2604 15.2396 67.1667 16.9062 66.125 18.7812C63.4167 23.3646 62.0625 27.7917 62.0625 32.0625C62.0625 36.2292 62.8438 39.6667 64.4062 42.375C66.0729 45.0833 67.8438 47.3229 69.7188 49.0938C71.6979 50.8646 73.4688 52.5312 75.0312 54.0938C76.6979 55.6562 77.5312 57.4271 77.5312 59.4062C77.5312 61.2812 77.2708 62.9479 76.75 64.4062C76.2292 65.7604 75.3958 67.0625 74.25 68.3125C71.5417 71.2292 68 72.6875 63.625 72.6875H62.2188ZM16.9062 72.6875C16.4896 72.6875 15.6042 72.5833 14.25 72.375C12.8958 72.1667 11.2812 71.2292 9.40625 69.5625C7.63542 67.7917 6.125 65.6042 4.875 63C2.0625 57.6875 0.65625 51.5938 0.65625 44.7188C0.65625 37.7396 1.80208 31.4896 4.09375 25.9688C6.48958 20.4479 9.19792 15.8125 12.2188 12.0625C15.3438 8.20833 18.3646 5.29167 21.2812 3.3125C24.3021 1.33333 26.3333 0.34375 27.375 0.34375C28.4167 0.34375 29.3021 0.760417 30.0312 1.59375C30.7604 2.32292 31.125 3.15625 31.125 4.09375C31.125 6.38542 30.2396 8.20833 28.4688 9.5625C26.6979 10.8125 25.2396 12.2188 24.0938 13.7812C22.9479 15.2396 21.8542 16.9062 20.8125 18.7812C18.1042 23.3646 16.75 27.7917 16.75 32.0625C16.75 36.2292 17.5312 39.6667 19.0938 42.375C20.7604 45.0833 22.5312 47.3229 24.4062 49.0938C26.3854 50.8646 28.1562 52.5312 29.7188 54.0938C31.3854 55.6562 32.2188 57.4271 32.2188 59.4062C32.2188 61.2812 31.9583 62.9479 31.4375 64.4062C30.9167 65.7604 30.0833 67.0625 28.9375 68.3125C26.2292 71.2292 22.6875 72.6875 18.3125 72.6875H16.9062Z" fill="#FFD23F"/>
</svg>
