<svg id="tg" width="38" height="39" viewBox="0 0 38 39" fill="none" xmlns="http://www.w3.org/2000/svg">
<path d="M3.306 35.1939L21.2294 17.267M34.605 23.8115L3.83524 35.4594C3.72424 35.5018 3.60332 35.5113 3.48708 35.4865C3.37085 35.4617 3.26428 35.4038 3.18025 35.3197C3.09621 35.2357 3.03831 35.1291 3.01353 35.0128C2.98875 34.8966 2.99815 34.7756 3.04061 34.6646L14.6862 3.8887C14.7325 3.77183 14.8135 3.67194 14.9183 3.60248C15.0231 3.53302 15.1466 3.49731 15.2722 3.50016C15.3979 3.50301 15.5197 3.54428 15.6212 3.61841C15.7227 3.69255 15.7991 3.79601 15.8401 3.91486L21.0248 16.6938C21.0852 16.8749 21.187 17.0394 21.3219 17.1744C21.4569 17.3094 21.6214 17.4112 21.8025 17.4716L34.5789 22.6528C34.6992 22.6928 34.8043 22.7691 34.8796 22.8712C34.955 22.9732 34.997 23.0961 34.9998 23.2229C35.0027 23.3498 34.9663 23.4744 34.8956 23.5797C34.825 23.6851 34.7235 23.766 34.605 23.8115Z" stroke="white" stroke-width="4" stroke-linecap="round" stroke-linejoin="round"/>
</svg>
