<svg width="36" height="37" viewBox="0 0 36 37" fill="none" xmlns="http://www.w3.org/2000/svg">
<path d="M2.306 34.1939L20.2294 16.267M33.605 22.8115L2.83524 34.4594C2.72424 34.5018 2.60332 34.5113 2.48708 34.4865C2.37085 34.4617 2.26428 34.4038 2.18025 34.3197C2.09621 34.2357 2.03831 34.1291 2.01353 34.0128C1.98875 33.8966 1.99815 33.7756 2.04061 33.6646L13.6862 2.8887C13.7325 2.77183 13.8135 2.67194 13.9183 2.60248C14.0231 2.53302 14.1466 2.49731 14.2722 2.50016C14.3979 2.50301 14.5197 2.54428 14.6212 2.61841C14.7227 2.69255 14.7991 2.79601 14.8401 2.91486L20.0248 15.6938C20.0852 15.8749 20.187 16.0394 20.3219 16.1744C20.4569 16.3094 20.6214 16.4112 20.8025 16.4716L33.5789 21.6528C33.6992 21.6928 33.8043 21.7691 33.8796 21.8712C33.955 21.9732 33.997 22.0961 33.9998 22.2229C34.0027 22.3498 33.9663 22.4744 33.8956 22.5797C33.825 22.6851 33.7235 22.766 33.605 22.8115Z" stroke="#FFD23F" stroke-width="4" stroke-linecap="round" stroke-linejoin="round"/>
</svg>
