<svg id="vk" width="51" height="31" viewBox="0 0 51 31" fill="none" xmlns="http://www.w3.org/2000/svg">
<path d="M49.849 2.53437C50.1959 1.3625 49.849 0.5 48.1803 0.5H42.6584C41.2521 0.5 40.6053 1.24062 40.2584 2.06562C40.2584 2.06562 37.4459 8.91875 33.4709 13.3625C32.1865 14.6469 31.5959 15.0594 30.8928 15.0594C30.5459 15.0594 30.0115 14.6469 30.0115 13.475V2.53437C30.0115 1.12812 29.6178 0.5 28.4553 0.5H19.774C18.8928 0.5 18.3678 1.15625 18.3678 1.76562C18.3678 3.09687 20.3553 3.40625 20.5615 7.15625V15.2938C20.5615 17.075 20.2428 17.4031 19.5396 17.4031C17.6646 17.4031 13.1084 10.5219 10.4084 2.64688C9.86465 1.11875 9.33027 0.5 7.91465 0.5H2.39277C0.817773 0.5 0.499023 1.24062 0.499023 2.06562C0.499023 3.52812 2.37402 10.7938 9.22715 20.3938C13.7928 26.9469 20.224 30.5 26.074 30.5C29.5896 30.5 30.0209 29.7125 30.0209 28.3531C30.0209 22.0906 29.7021 21.5 31.4646 21.5C32.2803 21.5 33.6865 21.9125 36.9678 25.0719C40.7178 28.8219 41.3365 30.5 43.4365 30.5H48.9584C50.5334 30.5 51.3303 29.7125 50.8709 28.1562C49.8209 24.8844 42.724 18.1531 42.4053 17.7031C41.5896 16.6531 41.824 16.1844 42.4053 15.2469C42.4146 15.2375 49.1553 5.75 49.849 2.53437Z" fill="white"/>
</svg>
